# xmcd
#
# Track frame offsets:
#	150
#	16374
#	28826
#	42479
#	57843
#	72925
#	90324
#	107540
#	120887
#	134098
#	149593
#	166334
#	179728
#
# Disc length: 2701 seconds
# Revision: 2
# Processed by: cddbd v1.5.2PL0 Copyright (c) Steve Scherf et al.
# Submitted via: dBpowerAMP V12.0
#
DISCID=b70a8b0d
DTITLE=Various Artist - Can't Settle For Less
DYEAR=2004
DGENRE=Country*
TTITLE0=Adam Harvey - I've Been Loved By The Best
TTITLE1=Adam Harvey - That's Just How She Gets
TTITLE2=Adam Harvey - I Want My Rib Back
TTITLE3=Adam Harvey - The Biggest Fool
TTITLE4=Adam Harvey - Lady Lay Down
TTITLE5=Adam Harvey feat. The Beer Holders - God Made Beer
TTITLE6=Adam Harvey - That's What You Call A Friend
TTITLE7=Adam Harvey - Cadillac Tears
TTITLE8=Adam Harvey - Doghouse
TTITLE9=Adam Harvey - Missing Heroes
TTITLE10=Adam Harvey - Once Upon A Long Gone Time
TTITLE11=Adam Harvey - Life Don't Have To Mean Nothin' At All
TTITLE12=Adam Harvey - Orphan Of The Road
EXTD=
EXTT0=
EXTT1=
EXTT2=
EXTT3=
EXTT4=
EXTT5=
EXTT6=
EXTT7=
EXTT8=
EXTT9=
EXTT10=
EXTT11=
EXTT12=
PLAYORDER=
